# xmcd
#
# Track frame offsets:
#	150
#	48452
#	95668
#	153615
#	206742
#	249567
#
# Disc length: 3829 seconds
# Revision: 1
# Processed by: cddbd v1.5.2PL0 Copyright (c) Steve Scherf et al.
# Submitted via: dBpowerAMP V12.0
#
DISCID=520ef306
DTITLE=Lester Levenson - The Ultimate Goal Vol 02 CD 04
DYEAR=2000
DGENRE=Home Study
TTITLE0=There Are No Problems pt 1
TTITLE1=There Are No Problems pt 2
TTITLE2=There Are No Problems pt 3
TTITLE3=There Are No Problems pt 4
TTITLE4=There Are No Problems pt 5
TTITLE5=There Are No Problems pt 6
EXTD=
EXTT0=
EXTT1=
EXTT2=
EXTT3=
EXTT4=
EXTT5=
PLAYORDER=
